solid OpenSCAD_Model
  facet normal -1 0 0
    outer loop
      vertex 0 35 9
      vertex 0 60 0
      vertex 0 35 4
    endloop
  endfacet
  facet normal -1 0 0
    outer loop
      vertex 0 60 0
      vertex 0 25 4
      vertex 0 35 4
    endloop
  endfacet
  facet normal -1 0 0
    outer loop
      vertex 0 0 0
      vertex 0 25 9
      vertex 0 25 4
    endloop
  endfacet
  facet normal -1 0 0
    outer loop
      vertex 0 0 0
      vertex 0 25 4
      vertex 0 60 0
    endloop
  endfacet
  facet normal -1 -0 0
    outer loop
      vertex 0 25 9
      vertex 0 0 0
      vertex 0 15 26
    endloop
  endfacet
  facet normal -1 0 0
    outer loop
      vertex 0 0 43
      vertex 0 15 26
      vertex 0 0 0
    endloop
  endfacet
  facet normal -1 0 0
    outer loop
      vertex 0 15 26
      vertex 0 0 43
      vertex 0 15 43
    endloop
  endfacet
  facet normal -1 0 0
    outer loop
      vertex 0 60 0
      vertex 0 35 9
      vertex 0 60 26
    endloop
  endfacet
  facet normal -1 0 0
    outer loop
      vertex 0 15 26
      vertex 0 35 9
      vertex 0 25 9
    endloop
  endfacet
  facet normal -1 0 0
    outer loop
      vertex 0 35 9
      vertex 0 15 26
      vertex 0 60 26
    endloop
  endfacet
  facet normal -0 0 1
    outer loop
      vertex 2 58 2
      vertex 118 0 2
      vertex 118 58 2
    endloop
  endfacet
  facet normal 0 0 1
    outer loop
      vertex 118 0 2
      vertex 2 58 2
      vertex 2 0 2
    endloop
  endfacet
  facet normal 1 0 0
    outer loop
      vertex 120 15 43
      vertex 120 0 43
      vertex 120 15 26
    endloop
  endfacet
  facet normal 1 0 0
    outer loop
      vertex 120 60 26
      vertex 120 35 9
      vertex 120 60 0
    endloop
  endfacet
  facet normal 1 -0 0
    outer loop
      vertex 120 15 26
      vertex 120 35 9
      vertex 120 60 26
    endloop
  endfacet
  facet normal 1 0 0
    outer loop
      vertex 120 0 0
      vertex 120 25 9
      vertex 120 15 26
    endloop
  endfacet
  facet normal 1 0 0
    outer loop
      vertex 120 35 9
      vertex 120 15 26
      vertex 120 25 9
    endloop
  endfacet
  facet normal 1 -0 0
    outer loop
      vertex 120 35 4
      vertex 120 60 0
      vertex 120 35 9
    endloop
  endfacet
  facet normal 1 -0 0
    outer loop
      vertex 120 25 4
      vertex 120 60 0
      vertex 120 35 4
    endloop
  endfacet
  facet normal 1 0 0
    outer loop
      vertex 120 0 0
      vertex 120 15 26
      vertex 120 0 43
    endloop
  endfacet
  facet normal 1 0 0
    outer loop
      vertex 120 25 4
      vertex 120 0 0
      vertex 120 60 0
    endloop
  endfacet
  facet normal 1 0 0
    outer loop
      vertex 120 25 9
      vertex 120 0 0
      vertex 120 25 4
    endloop
  endfacet
  facet normal 0 1 -0
    outer loop
      vertex 120 60 0
      vertex 0 60 26
      vertex 120 60 26
    endloop
  endfacet
  facet normal 0 1 0
    outer loop
      vertex 0 60 26
      vertex 120 60 0
      vertex 0 60 0
    endloop
  endfacet
  facet normal 0 0 -1
    outer loop
      vertex 0 0 0
      vertex 120 60 0
      vertex 120 0 0
    endloop
  endfacet
  facet normal -0 0 -1
    outer loop
      vertex 120 60 0
      vertex 0 0 0
      vertex 0 60 0
    endloop
  endfacet
  facet normal 0 -1 0
    outer loop
      vertex 0 0 43
      vertex 2 0 2
      vertex 2 0 43
    endloop
  endfacet
  facet normal 0 -1 -0
    outer loop
      vertex 2 0 2
      vertex 0 0 0
      vertex 118 0 2
    endloop
  endfacet
  facet normal 0 -1 0
    outer loop
      vertex 0 0 0
      vertex 2 0 2
      vertex 0 0 43
    endloop
  endfacet
  facet normal 0 -1 0
    outer loop
      vertex 118 0 2
      vertex 120 0 43
      vertex 118 0 43
    endloop
  endfacet
  facet normal 0 -1 0
    outer loop
      vertex 118 0 2
      vertex 120 0 0
      vertex 120 0 43
    endloop
  endfacet
  facet normal 0 -1 0
    outer loop
      vertex 120 0 0
      vertex 118 0 2
      vertex 0 0 0
    endloop
  endfacet
  facet normal -0 0 1
    outer loop
      vertex 2 58 14
      vertex 118 15 14
      vertex 118 58 14
    endloop
  endfacet
  facet normal 0 0 1
    outer loop
      vertex 118 15 14
      vertex 2 58 14
      vertex 2 15 14
    endloop
  endfacet
  facet normal 0 0 -1
    outer loop
      vertex 2 15 12
      vertex 118 58 12
      vertex 118 15 12
    endloop
  endfacet
  facet normal -0 0 -1
    outer loop
      vertex 118 58 12
      vertex 2 15 12
      vertex 2 58 12
    endloop
  endfacet
  facet normal 0 -1 0
    outer loop
      vertex 2 15 12
      vertex 118 15 14
      vertex 2 15 14
    endloop
  endfacet
  facet normal 0 -1 -0
    outer loop
      vertex 118 15 14
      vertex 2 15 12
      vertex 118 15 12
    endloop
  endfacet
  facet normal 0 0 1
    outer loop
      vertex 120 60 26
      vertex 118 58 26
      vertex 120 15 26
    endloop
  endfacet
  facet normal 0 0 1
    outer loop
      vertex 120 60 26
      vertex 2 58 26
      vertex 118 58 26
    endloop
  endfacet
  facet normal -0 0 1
    outer loop
      vertex 0 60 26
      vertex 2 58 26
      vertex 120 60 26
    endloop
  endfacet
  facet normal 0 0 1
    outer loop
      vertex 0 15 26
      vertex 2 58 26
      vertex 0 60 26
    endloop
  endfacet
  facet normal 0 0 1
    outer loop
      vertex 2 58 26
      vertex 0 15 26
      vertex 2 15 26
    endloop
  endfacet
  facet normal 0 0 1
    outer loop
      vertex 120 15 26
      vertex 118 58 26
      vertex 118 15 26
    endloop
  endfacet
  facet normal 1 -0 0
    outer loop
      vertex 2 0 43
      vertex 2 15 26
      vertex 2 15 43
    endloop
  endfacet
  facet normal 1 0 0
    outer loop
      vertex 2 0 2
      vertex 2 15 26
      vertex 2 0 43
    endloop
  endfacet
  facet normal 1 0 0
    outer loop
      vertex 2 15 26
      vertex 2 0 2
      vertex 2 15 14
    endloop
  endfacet
  facet normal 1 -0 0
    outer loop
      vertex 2 15 26
      vertex 2 58 14
      vertex 2 58 26
    endloop
  endfacet
  facet normal 1 0 0
    outer loop
      vertex 2 58 14
      vertex 2 15 26
      vertex 2 15 14
    endloop
  endfacet
  facet normal 1 0 0
    outer loop
      vertex 2 58 12
      vertex 2 35 9
      vertex 2 58 2
    endloop
  endfacet
  facet normal 1 -0 0
    outer loop
      vertex 2 15 12
      vertex 2 35 9
      vertex 2 58 12
    endloop
  endfacet
  facet normal 1 0 0
    outer loop
      vertex 2 25 9
      vertex 2 15 12
      vertex 2 25 4
    endloop
  endfacet
  facet normal 1 0 0
    outer loop
      vertex 2 35 9
      vertex 2 15 12
      vertex 2 25 9
    endloop
  endfacet
  facet normal 1 -0 0
    outer loop
      vertex 2 35 4
      vertex 2 58 2
      vertex 2 35 9
    endloop
  endfacet
  facet normal 1 -0 0
    outer loop
      vertex 2 25 4
      vertex 2 58 2
      vertex 2 35 4
    endloop
  endfacet
  facet normal 1 0 0
    outer loop
      vertex 2 25 4
      vertex 2 0 2
      vertex 2 58 2
    endloop
  endfacet
  facet normal 1 0 0
    outer loop
      vertex 2 15 12
      vertex 2 0 2
      vertex 2 25 4
    endloop
  endfacet
  facet normal 1 0 0
    outer loop
      vertex 2 15 14
      vertex 2 0 2
      vertex 2 15 12
    endloop
  endfacet
  facet normal -0 0 1
    outer loop
      vertex 0 15 43
      vertex 2 0 43
      vertex 2 15 43
    endloop
  endfacet
  facet normal 0 0 1
    outer loop
      vertex 2 0 43
      vertex 0 15 43
      vertex 0 0 43
    endloop
  endfacet
  facet normal 0 1 -0
    outer loop
      vertex 2 15 26
      vertex 0 15 43
      vertex 2 15 43
    endloop
  endfacet
  facet normal 0 1 0
    outer loop
      vertex 0 15 43
      vertex 2 15 26
      vertex 0 15 26
    endloop
  endfacet
  facet normal -1 0 0
    outer loop
      vertex 118 35 9
      vertex 118 58 2
      vertex 118 35 4
    endloop
  endfacet
  facet normal -1 0 0
    outer loop
      vertex 118 58 2
      vertex 118 25 4
      vertex 118 35 4
    endloop
  endfacet
  facet normal -1 0 0
    outer loop
      vertex 118 25 4
      vertex 118 15 12
      vertex 118 25 9
    endloop
  endfacet
  facet normal -1 0 0
    outer loop
      vertex 118 0 2
      vertex 118 15 14
      vertex 118 15 12
    endloop
  endfacet
  facet normal -1 -0 0
    outer loop
      vertex 118 15 14
      vertex 118 0 2
      vertex 118 15 26
    endloop
  endfacet
  facet normal -1 0 0
    outer loop
      vertex 118 0 2
      vertex 118 25 4
      vertex 118 58 2
    endloop
  endfacet
  facet normal -1 0 0
    outer loop
      vertex 118 0 2
      vertex 118 15 12
      vertex 118 25 4
    endloop
  endfacet
  facet normal -1 -0 0
    outer loop
      vertex 118 15 26
      vertex 118 0 2
      vertex 118 0 43
    endloop
  endfacet
  facet normal -1 0 0
    outer loop
      vertex 118 15 26
      vertex 118 0 43
      vertex 118 15 43
    endloop
  endfacet
  facet normal -1 0 0
    outer loop
      vertex 118 58 2
      vertex 118 35 9
      vertex 118 58 12
    endloop
  endfacet
  facet normal -1 0 0
    outer loop
      vertex 118 15 12
      vertex 118 35 9
      vertex 118 25 9
    endloop
  endfacet
  facet normal -1 0 0
    outer loop
      vertex 118 35 9
      vertex 118 15 12
      vertex 118 58 12
    endloop
  endfacet
  facet normal -1 0 0
    outer loop
      vertex 118 15 14
      vertex 118 58 26
      vertex 118 58 14
    endloop
  endfacet
  facet normal -1 -0 0
    outer loop
      vertex 118 58 26
      vertex 118 15 14
      vertex 118 15 26
    endloop
  endfacet
  facet normal -0 0 1
    outer loop
      vertex 118 15 43
      vertex 120 0 43
      vertex 120 15 43
    endloop
  endfacet
  facet normal 0 0 1
    outer loop
      vertex 120 0 43
      vertex 118 15 43
      vertex 118 0 43
    endloop
  endfacet
  facet normal 0 1 -0
    outer loop
      vertex 120 15 26
      vertex 118 15 43
      vertex 120 15 43
    endloop
  endfacet
  facet normal 0 1 0
    outer loop
      vertex 118 15 43
      vertex 120 15 26
      vertex 118 15 26
    endloop
  endfacet
  facet normal 0 -1 0
    outer loop
      vertex 2 58 14
      vertex 118 58 26
      vertex 2 58 26
    endloop
  endfacet
  facet normal 0 -1 -0
    outer loop
      vertex 118 58 26
      vertex 2 58 14
      vertex 118 58 14
    endloop
  endfacet
  facet normal 0 -1 0
    outer loop
      vertex 2 58 2
      vertex 118 58 12
      vertex 2 58 12
    endloop
  endfacet
  facet normal 0 -1 -0
    outer loop
      vertex 118 58 12
      vertex 2 58 2
      vertex 118 58 2
    endloop
  endfacet
  facet normal 0 0 -1
    outer loop
      vertex 0 25 9
      vertex 2 35 9
      vertex 2 25 9
    endloop
  endfacet
  facet normal -0 0 -1
    outer loop
      vertex 2 35 9
      vertex 0 25 9
      vertex 0 35 9
    endloop
  endfacet
  facet normal -0 0 1
    outer loop
      vertex 0 35 4
      vertex 2 25 4
      vertex 2 35 4
    endloop
  endfacet
  facet normal 0 0 1
    outer loop
      vertex 2 25 4
      vertex 0 35 4
      vertex 0 25 4
    endloop
  endfacet
  facet normal 0 1 -0
    outer loop
      vertex 2 25 4
      vertex 0 25 9
      vertex 2 25 9
    endloop
  endfacet
  facet normal 0 1 0
    outer loop
      vertex 0 25 9
      vertex 2 25 4
      vertex 0 25 4
    endloop
  endfacet
  facet normal 0 -1 0
    outer loop
      vertex 0 35 4
      vertex 2 35 9
      vertex 0 35 9
    endloop
  endfacet
  facet normal 0 -1 -0
    outer loop
      vertex 2 35 9
      vertex 0 35 4
      vertex 2 35 4
    endloop
  endfacet
  facet normal 0 0 -1
    outer loop
      vertex 118 25 9
      vertex 120 35 9
      vertex 120 25 9
    endloop
  endfacet
  facet normal -0 0 -1
    outer loop
      vertex 120 35 9
      vertex 118 25 9
      vertex 118 35 9
    endloop
  endfacet
  facet normal 0 -1 0
    outer loop
      vertex 118 35 4
      vertex 120 35 9
      vertex 118 35 9
    endloop
  endfacet
  facet normal 0 -1 -0
    outer loop
      vertex 120 35 9
      vertex 118 35 4
      vertex 120 35 4
    endloop
  endfacet
  facet normal -0 0 1
    outer loop
      vertex 118 35 4
      vertex 120 25 4
      vertex 120 35 4
    endloop
  endfacet
  facet normal 0 0 1
    outer loop
      vertex 120 25 4
      vertex 118 35 4
      vertex 118 25 4
    endloop
  endfacet
  facet normal 0 1 -0
    outer loop
      vertex 120 25 4
      vertex 118 25 9
      vertex 120 25 9
    endloop
  endfacet
  facet normal 0 1 0
    outer loop
      vertex 118 25 9
      vertex 120 25 4
      vertex 118 25 4
    endloop
  endfacet
endsolid OpenSCAD_Model
