<svg xmlns="http://www.w3.org/2000/svg" width="1254" height="1254" viewBox="0 0 1254 1254" fill="none"><defs><linearGradient id="navy" x1="190" y1="146" x2="1064" y2="1103" gradientUnits="userSpaceOnUse"><stop offset="0" stop-color="#001747"/><stop offset="1" stop-color="#00133E"/></linearGradient><linearGradient id="blue" x1="330" y1="260" x2="560" y2="725" gradientUnits="userSpaceOnUse"><stop offset="0" stop-color="#0B61FF"/><stop offset="1" stop-color="#0052F5"/></linearGradient><linearGradient id="blueCircle" x1="722" y1="778" x2="883" y2="1000" gradientUnits="userSpaceOnUse"><stop offset="0" stop-color="#0B61FF"/><stop offset="1" stop-color="#004CF0"/></linearGradient><filter id="softShadow" x="-5%" y="-5%" width="110%" height="110%" color-interpolation-filters="sRGB"><feDropShadow dx="0" dy="3" stdDeviation="4" flood-color="#00133E" flood-opacity="0.10"/></filter></defs><rect x="220" y="176" width="814" height="897" rx="151" fill="white" stroke="url(#navy)" stroke-width="61" filter="url(#softShadow)"/><g fill="url(#blue)" filter="url(#softShadow)"><rect x="402" y="270" width="84" height="226" rx="18"/><rect x="333" y="341" width="223" height="84" rx="18"/><rect x="348" y="561" width="163" height="157" rx="24"/></g><g fill="url(#navy)" filter="url(#softShadow)"><rect x="611" y="353" width="323" height="59" rx="30"/><rect x="611" y="603" width="323" height="59" rx="30"/><rect x="341" y="867" width="297" height="58" rx="29"/></g><circle cx="816" cy="878" r="120" fill="url(#blueCircle)" filter="url(#softShadow)"/><path d="M765 877 L798 910 L864 840" stroke="white" stroke-width="42" stroke-linecap="round" stroke-linejoin="round"/></svg>